HIERARCHY
ROOT root
{
	OFFSET 0.000000 0.000000 0.000000
	CHANNELS 6 Xposition Yposition Zposition Zrotation Yrotation Xrotation
	JOINT lhip
	{
		OFFSET 0.058581 -0.082280 -0.017664
		CHANNELS 3 Zrotation Yrotation Xrotation
		JOINT lknee
		{
			OFFSET 0.043451 -0.386469 0.008037
			CHANNELS 3 Zrotation Yrotation Xrotation
			JOINT lankle
			{
				OFFSET -0.014790 -0.426874 -0.037428
				CHANNELS 3 Zrotation Yrotation Xrotation
				JOINT ltoe
				{
					OFFSET 0.041054 -0.060286 0.122042
					CHANNELS 3 Zrotation Yrotation Xrotation
					End Site
					{
						OFFSET 0.000000 0.000000 0.000000
					}
				}
			}
		}
	}
	JOINT rhip
	{
		OFFSET -0.060310 -0.090513 -0.013543
		CHANNELS 3 Zrotation Yrotation Xrotation
		JOINT rknee
		{
			OFFSET -0.043257 -0.383688 -0.004843
			CHANNELS 3 Zrotation Yrotation Xrotation
			JOINT rankle
			{
				OFFSET 0.019056 -0.420046 -0.034562
				CHANNELS 3 Zrotation Yrotation Xrotation
				JOINT rtoe
				{
					OFFSET -0.034840 -0.062106 0.130323
					CHANNELS 3 Zrotation Yrotation Xrotation
					End Site
					{
						OFFSET 0.000000 0.000000 0.000000
					}
				}
			}
		}
	}
	JOINT lowerback
	{
		OFFSET 0.004439 0.124404 -0.038385
		CHANNELS 3 Zrotation Yrotation Xrotation
		JOINT upperback
		{
			OFFSET 0.004488 0.137956 0.026820
			CHANNELS 3 Zrotation Yrotation Xrotation
			JOINT chest
			{
				OFFSET -0.002265 0.056032 0.002855
				CHANNELS 3 Zrotation Yrotation Xrotation
				JOINT lowerneck
				{
					OFFSET -0.013390 0.211636 -0.033468
					CHANNELS 3 Zrotation Yrotation Xrotation
					JOINT upperneck
					{
						OFFSET 0.010113 0.088937 0.050410
						CHANNELS 3 Zrotation Yrotation Xrotation
						End Site
						{
							OFFSET 0.000000 0.000000 0.000000
						}
					}
				}
				JOINT lclavicle
				{
					OFFSET 0.071702 0.114000 -0.018898
					CHANNELS 3 Zrotation Yrotation Xrotation
					JOINT lshoulder
					{
						OFFSET 0.122921 0.045205 -0.019046
						CHANNELS 3 Zrotation Yrotation Xrotation
						JOINT lelbow
						{
							OFFSET 0.255332 -0.015649 -0.022946
							CHANNELS 3 Zrotation Yrotation Xrotation
							JOINT lwrist
							{
								OFFSET 0.265709 0.012698 -0.007375
								CHANNELS 3 Zrotation Yrotation Xrotation
								End Site
								{
									OFFSET 0.000000 0.000000 0.000000
								}
							}
						}
					}
				}
				JOINT rclavicle
				{
					OFFSET -0.082954 0.112472 -0.023707
					CHANNELS 3 Zrotation Yrotation Xrotation
					JOINT rshoulder
					{
						OFFSET -0.113228 0.046853 -0.008472
						CHANNELS 3 Zrotation Yrotation Xrotation
						JOINT relbow
						{
							OFFSET -0.260127 -0.014369 -0.031269
							CHANNELS 3 Zrotation Yrotation Xrotation
							JOINT rwrist
							{
								OFFSET -0.269108 0.006794 -0.006027
								CHANNELS 3 Zrotation Yrotation Xrotation
								End Site
								{
									OFFSET 0.000000 0.000000 0.000000
								}
							}
						}
					}
				}
			}
		}
	}
}
MOTION
Frames: 7
Frame Time: 0.033333
0.159021 0.565521 1.019016 -4.418982 35.880531 71.594828 39.721635 8.696890 -0.605171 -17.420993 -24.789239 36.412582 0.190157 5.795985 -21.445815 0.000000 -0.000000 0.000000 -22.246139 -19.628641 -52.317039 3.227364 -24.937057 80.591723 14.032340 -7.315046 8.324831 0.000000 -0.000000 0.000000 -3.470125 -0.570320 33.970550 9.409457 2.523683 -5.076232 8.799874 -3.325474 6.980967 11.262896 -9.058973 10.793000 17.719306 -15.139929 2.819341 -10.471215 -9.534536 -5.640308 -3.110242 -20.470443 -7.201519 93.266590 -88.042494 -76.428358 6.480564 -13.091555 -2.619264 22.897210 7.180339 0.691533 25.022617 -11.671691 1.243753 2.301261 36.127893 8.384862 0.864918 4.837617 13.894446 
0.162506 0.565708 1.015601 -5.872963 35.252980 70.173871 39.687289 10.376528 0.391127 -16.735953 -23.301594 37.218275 0.688527 3.125303 -23.139483 0.000000 -0.000000 0.000000 -20.927346 -19.536843 -48.477608 4.803213 -23.647170 54.385095 15.511248 -11.972946 20.412318 0.000000 -0.000000 0.000000 -3.903677 -0.577816 34.188574 9.426217 1.827499 -3.834611 9.664133 -3.675732 7.083840 9.420603 -10.480196 12.761618 19.485701 -12.506747 4.007196 -9.727452 -10.790096 -4.604403 -2.192698 -23.295739 -9.638502 36.825712 -86.571431 -21.117151 8.319625 -14.612600 -1.576776 22.452137 7.077431 1.255277 26.221284 -11.473734 2.838458 1.210258 34.669511 5.270797 0.186222 5.061825 12.809293 
0.164622 0.567048 1.013070 -6.971588 33.919207 70.247012 38.593235 13.217863 0.081298 -15.367642 -22.345037 37.953922 -0.681810 -0.094780 -24.741428 0.000000 -0.000000 0.000000 -18.487251 -19.357180 -42.518760 6.731767 -19.168552 21.482592 18.300928 -9.796534 11.433941 0.000000 -0.000000 0.000000 -4.375246 0.401768 33.636279 8.958950 0.491202 -3.389791 10.474784 -4.608509 6.691743 8.947719 -9.225000 14.241208 20.371873 -12.472095 4.954120 -8.486236 -11.952853 -4.432131 -2.772671 -26.092745 -10.931399 9.073411 -82.627196 6.788099 8.849367 -15.630204 -0.746515 21.828186 6.596660 1.869244 28.359901 -11.403318 2.402722 0.888270 32.769454 5.040374 0.061837 4.852870 12.502619 
0.165922 0.569444 1.010273 -6.932396 32.118459 72.623267 35.560200 13.540139 -2.513028 -14.387119 -20.493808 38.139959 -1.371217 -0.609789 -24.672611 0.000000 -0.000000 0.000000 -17.772293 -20.707648 -41.398289 7.908088 -20.468257 -2.629174 16.410455 -12.357439 1.336226 0.000000 -0.000000 0.000000 -4.957692 1.482729 31.357281 8.579008 -1.103126 -3.629880 10.637617 -5.642136 5.928087 7.770584 -8.211118 16.546540 20.717207 -11.717382 3.936222 -7.613059 -13.369069 -2.076611 -3.297918 -28.973099 -12.223342 4.152541 -77.935328 12.773133 8.455388 -16.158014 1.313199 20.805564 5.403668 3.353537 31.562192 -11.825730 1.419446 0.403957 31.298725 6.029891 1.678288 4.569161 10.353048 
0.164275 0.569571 1.007512 -6.409921 30.749150 74.672173 33.122013 12.999825 -4.728081 -14.683176 -20.241411 38.697883 -0.961135 1.125357 -24.251649 0.000000 -0.000000 0.000000 -18.630164 -22.031722 -44.920058 10.118201 -14.617184 -0.754129 12.747473 -3.589109 -8.343269 0.000000 -0.000000 0.000000 -4.837975 1.759412 30.063134 7.979202 -2.178041 -6.007166 9.914543 -6.698770 6.806241 6.914401 -6.706476 16.395893 20.615046 -12.841034 2.750173 -6.584650 -14.986847 -2.207576 -5.951246 -31.081167 -10.952969 -1.624292 -74.827023 18.094800 8.750090 -16.732953 1.984740 19.097778 3.906366 3.680132 35.210074 -12.755784 -0.344232 1.606130 29.551446 9.663122 2.374041 4.513819 8.648989 
0.161793 0.564194 1.010348 -5.942187 30.616810 73.552080 33.283532 11.103537 -2.132300 -14.593361 -20.614930 36.561100 -0.695608 2.378257 -23.488185 0.000000 -0.000000 0.000000 -20.906953 -21.093808 -44.740526 7.731044 -19.299805 10.717959 15.436980 -7.430666 4.032128 0.000000 -0.000000 0.000000 -3.914301 0.361374 31.930345 6.960656 -1.723873 -8.256495 9.162930 -7.399191 8.010299 4.997411 -8.289895 14.941319 20.633001 -11.587950 1.860183 -7.951675 -16.399993 -1.442617 -6.341674 -32.293412 -9.787138 -3.502832 -73.798350 17.985823 8.375862 -17.419555 2.911772 18.068607 2.992729 1.900071 36.073334 -15.187584 0.901775 3.855828 28.731563 9.597649 1.816797 4.044254 9.635654 
0.159884 0.562142 1.016010 -6.906593 30.921737 72.327343 34.545077 11.243854 1.057371 -14.009640 -21.340367 33.023394 -0.747812 2.682503 -22.403100 0.000000 -0.000000 0.000000 -21.117262 -17.840326 -43.888776 6.307593 -21.682674 22.598264 13.426106 -10.455755 1.326140 0.000000 -0.000000 0.000000 -3.501127 -1.407620 32.884913 6.684034 -0.794536 -7.316018 8.673739 -7.095945 7.313872 4.961856 -8.536360 12.590639 20.282874 -10.041906 0.676177 -9.712960 -17.027508 -2.035685 -7.269136 -32.659122 -8.393595 -6.210897 -73.683200 21.454757 7.937419 -17.048374 2.484445 18.426937 3.690814 1.425436 35.684405 -16.768199 1.672719 3.373035 28.166337 8.061685 0.745756 3.665635 9.994033 
